HIERARCHY
ROOT Hips
{
 OFFSET 0.000000 0.000000 0.000000
 CHANNELS 6 Xposition Yposition Zposition Yrotation Xrotation Zrotation
 JOINT Chest
 {
  OFFSET 0.000000 9.585900 0.002600
  CHANNELS 3 Yrotation Xrotation Zrotation
  JOINT Chest2
  {
   OFFSET 0.000000 9.601200 -0.005300
   CHANNELS 3 Yrotation Xrotation Zrotation
   JOINT Chest3
   {
    OFFSET 0.000000 9.561800 0.000000
    CHANNELS 3 Yrotation Xrotation Zrotation
    JOINT Chest4
    {
     OFFSET 0.000000 9.552100 0.000000
     CHANNELS 3 Yrotation Xrotation Zrotation
     JOINT Neck
     {
      OFFSET 0.000000 14.453000 0.000000
      CHANNELS 3 Yrotation Xrotation Zrotation
      JOINT Head
      {
       OFFSET 0.000000 8.936500 -0.011300
       CHANNELS 3 Yrotation Xrotation Zrotation
       End Site
       {
        OFFSET 0.000000 17.073600 -0.006000
       }
      }
     }
     JOINT RightCollar
     {
      OFFSET -2.921100 9.558500 0.000000
      CHANNELS 3 Yrotation Xrotation Zrotation
      JOINT RightShoulder
      {
       OFFSET -13.519700 0.000000 0.000000
       CHANNELS 3 Yrotation Xrotation Zrotation
       JOINT RightElbow
       {
        OFFSET 0.000000 -29.696600 0.000000
        CHANNELS 3 Yrotation Xrotation Zrotation
        JOINT RightWrist
        {
         OFFSET 0.000000 -24.004700 0.000000
         CHANNELS 3 Yrotation Xrotation Zrotation
         End Site
         {
          OFFSET 0.000000 -17.728500 0.000000
         }
        }
       }
      }
     }
     JOINT LeftCollar
     {
      OFFSET 2.921100 9.558500 0.000000
      CHANNELS 3 Yrotation Xrotation Zrotation
      JOINT LeftShoulder
      {
       OFFSET 13.519700 0.000000 0.000000
       CHANNELS 3 Yrotation Xrotation Zrotation
       JOINT LeftElbow
       {
        OFFSET 0.000000 -29.696600 0.000000
        CHANNELS 3 Yrotation Xrotation Zrotation
        JOINT LeftWrist
        {
         OFFSET 0.000000 -24.004700 0.000000
         CHANNELS 3 Yrotation Xrotation Zrotation
         End Site
         {
          OFFSET 0.000000 -17.728500 0.000000
         }
        }
       }
      }
     }
    }
   }
  }
 }
 JOINT RightHip
 {
  OFFSET -7.771700 -0.012900 -0.001300
  CHANNELS 3 Yrotation Xrotation Zrotation
  JOINT RightKnee
  {
   OFFSET 0.000000 -40.869800 0.001200
   CHANNELS 3 Yrotation Xrotation Zrotation
   JOINT RightAnkle
   {
    OFFSET 0.000000 -39.717900 0.002100
    CHANNELS 3 Yrotation Xrotation Zrotation
    JOINT RightToe
    {
     OFFSET 0.000000 -4.965400 11.033500
     CHANNELS 3 Yrotation Xrotation Zrotation
     End Site
     {
      OFFSET 0.000000 -1.423100 5.872300
     }
    }
   }
  }
 }
 JOINT LeftHip
 {
  OFFSET 7.771700 -0.012900 -0.001300
  CHANNELS 3 Yrotation Xrotation Zrotation
  JOINT LeftKnee
  {
   OFFSET 0.000000 -40.869800 0.001200
   CHANNELS 3 Yrotation Xrotation Zrotation
   JOINT LeftAnkle
   {
    OFFSET 0.000000 -39.717900 0.002100
    CHANNELS 3 Yrotation Xrotation Zrotation
    JOINT LeftToe
    {
     OFFSET 0.000000 -4.965400 11.033500
     CHANNELS 3 Yrotation Xrotation Zrotation
     End Site
     {
      OFFSET 0.000000 -1.423100 5.872300
     }
    }
   }
  }
 }
}
MOTION
Frames: 16
Frame Time: 0.008333
-106.001624 57.683172 96.721406 177.557970 -32.717667 -1.378297 2.319644 21.693880 3.658949 0.247178 2.977968 0.441561 0.375478 4.867422 0.739576 1.890282 18.381722 3.040876 0.123005 14.982370 -2.250424 1.081606 -7.952396 -4.270690 3.020119 -2.430032 -0.114267 17.338048 -23.793301 -22.270801 164.873352 -52.075569 -143.437398 20.607575 -14.547538 -46.089757 -6.110456 -3.039773 -2.432688 4.318750 -16.508566 -1.660047 -165.492325 -54.505109 152.894265 -8.012840 -17.362813 24.422501 7.562734 -42.728201 -5.084157 -12.917254 67.530795 -14.502439 9.224585 23.378598 8.537422 -0.266169 -16.454312 1.446259 -11.197579 -40.182939 0.410824 31.077487 62.566520 31.493305 -14.874363 6.812467 -7.569678 0.074222 0.035351 0.035608
-106.003326 57.683529 96.721139 177.557409 -32.716727 -1.384347 2.337532 21.683237 3.665554 0.246082 2.974867 0.442016 0.380418 4.865598 0.739805 1.896019 18.372950 3.043087 0.110163 14.997900 -2.240789 1.092358 -7.975037 -4.287924 3.019311 -2.424543 -0.113459 17.343617 -23.802809 -22.292785 164.858251 -52.075086 -143.436966 20.594428 -14.531415 -46.093714 -6.114652 -3.029524 -2.429547 4.322615 -16.507923 -1.662151 -165.510654 -54.523607 152.908107 -7.995312 -17.365333 24.398393 7.610017 -42.731847 -5.095123 -12.965842 67.535817 -14.530475 9.209943 23.385917 8.538240 -0.251478 -16.463078 1.453123 -11.197783 -40.180375 0.423115 31.074617 62.565243 31.486328 -14.880297 6.808966 -7.565797 0.075088 0.039131 0.035838
-106.005479 57.683750 96.720509 177.556484 -32.718133 -1.386728 2.356777 21.669291 3.667535 0.241551 2.978329 0.444916 0.395935 4.845426 0.733394 1.892387 18.381325 3.052022 0.109684 14.994599 -2.242544 1.084307 -7.965691 -4.279266 3.015480 -2.419352 -0.113774 17.346393 -23.807877 -22.304510 164.852037 -52.084677 -143.444726 20.595091 -14.526941 -46.095214 -6.119822 -3.021728 -2.427081 4.329576 -16.504491 -1.663135 -165.525622 -54.539916 152.919916 -7.975959 -17.366141 24.371639 7.636812 -42.731517 -5.103878 -12.972906 67.541350 -14.530224 9.206796 23.389507 8.544451 -0.255068 -16.470279 1.459163 -11.197221 -40.177395 0.432275 31.070530 62.568218 31.475583 -14.878692 6.806497 -7.561206 0.076360 0.041276 0.036955
-106.008290 57.683458 96.720064 177.556594 -32.718190 -1.385226 2.361670 21.665421 3.665419 0.245191 2.974652 0.444479 0.399030 4.838461 0.730310 1.892213 18.384827 3.056808 0.132345 14.955775 -2.264511 1.060706 -7.932237 -4.251891 3.016279 -2.425397 -0.120158 17.357172 -23.812026 -22.316519 164.844322 -52.094881 -143.451668 20.627226 -14.558191 -46.064358 -6.122295 -3.019011 -2.425948 4.333304 -16.502059 -1.663605 -165.535737 -54.550006 152.939341 -7.940415 -17.360184 24.348373 7.669245 -42.731457 -5.120948 -12.969567 67.549006 -14.519348 9.202782 23.386252 8.549533 -0.252502 -16.472814 1.465343 -11.195515 -40.177488 0.434154 31.093486 62.564740 31.485811 -14.885876 6.804265 -7.553631 0.063082 0.043622 0.038459
-106.011570 57.683156 96.719143 177.563929 -32.721963 -1.384518 2.365426 21.661797 3.662070 0.242590 2.969564 0.440341 0.400584 4.835378 0.729647 1.894027 18.389861 3.062869 0.138045 14.939407 -2.272332 1.080569 -7.969016 -4.266127 3.037340 -2.452683 -0.140949 17.342735 -23.801028 -22.308857 164.828974 -52.093637 -143.442231 20.624222 -14.551462 -46.057664 -6.123776 -3.016827 -2.424668 4.337358 -16.500228 -1.664244 -165.546093 -54.557856 152.947329 -7.898599 -17.347432 24.329092 7.699552 -42.727029 -5.140471 -12.934308 67.566622 -14.484190 9.177724 23.368611 8.563186 -0.257708 -16.467190 1.468951 -11.197820 -40.172724 0.435710 31.090213 62.562514 31.472357 -14.891551 6.806422 -7.551084 0.073379 0.044747 0.038148
-106.013738 57.682157 96.719041 177.564369 -32.721737 -1.387117 2.371575 21.650214 3.657848 0.246784 2.964800 0.439841 0.400538 4.836057 0.731695 1.899304 18.383307 3.058899 0.143310 14.933964 -2.268396 1.092887 -7.992398 -4.272126 3.033160 -2.442084 -0.131209 17.352869 -23.807599 -22.320806 164.814620 -52.088092 -143.428308 20.620539 -14.548274 -46.045164 -6.125082 -3.016239 -2.418872 4.338701 -16.495074 -1.664837 -165.547957 -54.572595 152.942120 -7.858292 -17.341999 24.328687 7.728054 -42.727495 -5.153061 -12.947838 67.573175 -14.486531 9.172779 23.359132 8.568937 -0.257311 -16.462795 1.471649 -11.201716 -40.172817 0.450446 31.082043 62.566089 31.452192 -14.893272 6.808606 -7.547525 0.071439 0.045388 0.039723
-106.016548 57.681507 96.718087 177.565656 -32.729132 -1.386475 2.378782 21.645332 3.654446 0.246600 2.966127 0.439618 0.397270 4.839360 0.734297 1.908126 18.371624 3.055118 0.146992 14.926890 -2.269362 1.101829 -8.008864 -4.275896 3.029375 -2.433793 -0.126315 17.346611 -23.805808 -22.317304 164.802547 -52.068219 -143.404986 20.617274 -14.545516 -46.030987 -6.123703 -3.011828 -2.415600 4.345725 -16.496735 -1.671900 -165.558730 -54.585754 152.945030 -7.821360 -17.341386 24.334256 7.748584 -42.719411 -5.165993 -12.962122 67.576371 -14.490410 9.171644 23.352434 8.568462 -0.253212 -16.459278 1.474821 -11.200510 -40.166391 0.449400 31.083774 62.568312 31.444427 -14.889387 6.811027 -7.539534 0.064944 0.045015 0.037878
-106.018847 57.680260 96.718065 177.566992 -32.732619 -1.389357 2.385189 21.639487 3.652197 0.249781 2.966133 0.442790 0.392279 4.841564 0.734978 1.917485 18.360697 3.051264 0.149212 14.919031 -2.269472 1.110984 -8.027353 -4.280072 3.029216 -2.437844 -0.131258 17.346686 -23.812324 -22.322721 164.787554 -52.071790 -143.394334 20.611522 -14.545177 -46.021294 -6.136887 -3.018724 -2.412029 4.364217 -16.491543 -1.676187 -165.556497 -54.595348 152.952076 -7.789788 -17.355350 24.340663 7.751648 -42.716118 -5.164626 -12.937467 67.581579 -14.473864 9.166302 23.345316 8.580355 -0.247060 -16.456325 1.471895 -11.208420 -40.165900 0.461734 31.082714 62.575537 31.432517 -14.892057 6.814355 -7.537700 0.067439 0.042416 0.037940
-106.021706 57.678523 96.718808 177.573023 -32.733519 -1.391316 2.389011 21.634002 3.652329 0.246101 2.967865 0.443238 0.396491 4.836000 0.732610 1.926768 18.341162 3.040799 0.144741 14.928446 -2.256309 1.112684 -8.030557 -4.278384 3.024905 -2.430338 -0.124760 17.344689 -23.830339 -22.332899 164.765391 -52.062387 -143.364187 20.583465 -14.523795 -46.025777 -6.152156 -2.995912 -2.397048 4.385718 -16.502932 -1.683736 -165.569526 -54.601558 152.966862 -7.763206 -17.372097 24.344297 7.767366 -42.715811 -5.169900 -12.951516 67.583913 -14.494433 9.166922 23.341886 8.599382 -0.240297 -16.456234 1.469664 -11.230531 -40.167540 0.481972 31.083260 62.583450 31.410995 -14.893417 6.814338 -7.539860 0.067419 0.043506 0.042876
-106.025985 57.676414 96.720137 177.585073 -32.733337 -1.387184 2.387512 21.625874 3.642382 0.239835 2.970898 0.444745 0.402001 4.828555 0.730040 1.926423 18.337714 3.038642 0.140703 14.936842 -2.247373 1.119174 -8.046183 -4.283927 3.030822 -2.435717 -0.134550 17.339935 -23.837552 -22.332839 164.763627 -52.085325 -143.375685 20.582618 -14.524114 -46.025234 -6.149181 -2.997290 -2.398586 4.403092 -16.519464 -1.690576 -165.570744 -54.611731 152.961209 -7.758878 -17.413913 24.422709 7.798623 -42.714474 -5.184819 -12.985020 67.582202 -14.541964 9.173863 23.339531 8.628191 -0.244259 -16.457049 1.475670 -11.243693 -40.171346 0.484234 31.059269 62.593037 31.360109 -14.872487 6.820635 -7.518511 0.054465 0.044583 0.037604
-106.028323 57.675031 96.720680 177.597742 -32.743618 -1.393019 2.385972 21.625381 3.642134 0.239813 2.969963 0.444420 0.413580 4.814893 0.722893 1.919083 18.350954 3.045302 0.144407 14.923928 -2.248123 1.128369 -8.061960 -4.288025 3.037371 -2.443302 -0.142494 17.343430 -23.840944 -22.337798 164.741804 -52.090657 -143.363663 20.584114 -14.527915 -46.037707 -6.143188 -3.001256 -2.402061 4.390178 -16.509100 -1.680392 -165.553849 -54.581778 152.980798 -7.739924 -17.437264 24.473963 7.794948 -42.704293 -5.183849 -12.985086 67.581465 -14.552759 9.190631 23.339871 8.640768 -0.254337 -16.459982 1.482895 -11.264373 -40.163785 0.496449 31.054787 62.599063 31.341423 -14.880605 6.819813 -7.517984 0.061151 0.045390 0.036806
-106.030213 57.672886 96.722589 177.600366 -32.748822 -1.394034 2.401910 21.612788 3.641755 0.241095 2.968361 0.443510 0.407477 4.821296 0.726818 1.912445 18.358670 3.049217 0.164865 14.889075 -2.270652 1.142449 -8.098414 -4.297702 3.063286 -2.468517 -0.164279 17.324201 -23.832162 -22.326917 164.715484 -52.090999 -143.346219 20.579449 -14.535807 -46.045840 -6.118269 -3.035672 -2.427414 4.373392 -16.487449 -1.664066 -165.540948 -54.562436 152.983131 -7.725036 -17.450912 24.504871 7.800328 -42.700833 -5.183132 -12.975739 67.579449 -14.552018 9.190522 23.349634 8.650617 -0.246409 -16.466680 1.484126 -11.271700 -40.160361 0.502985 31.052566 62.601813 31.331165 -14.879921 6.817730 -7.515780 0.057910 0.048181 0.035037
-106.031793 57.670292 96.725308 177.601809 -32.752358 -1.393644 2.402960 21.614013 3.641089 0.241231 2.968179 0.443424 0.411232 4.817781 0.725345 1.920302 18.351849 3.045412 0.172300 14.874811 -2.275377 1.144049 -8.106959 -4.295571 3.061088 -2.467535 -0.161158 17.326188 -23.836084 -22.336417 164.677126 -52.057308 -143.309417 20.545997 -14.516942 -46.056203 -6.118455 -3.042245 -2.433622 4.393418 -16.503082 -1.672320 -165.534960 -54.561316 152.973849 -7.709511 -17.460232 24.521464 7.814985 -42.700046 -5.177620 -12.984512 67.576365 -14.570961 9.184638 23.361851 8.657589 -0.245642 -16.474505 1.493854 -11.277233 -40.158546 0.510012 31.055115 62.601576 31.316111 -14.877936 6.820717 -7.501501 0.050517 0.050464 0.031032
-106.031902 57.667058 96.729151 177.602216 -32.751737 -1.398772 2.416970 21.602883 3.647190 0.242169 2.966780 0.443061 0.405673 4.822252 0.727638 1.932427 18.341996 3.041616 0.172358 14.869069 -2.275109 1.149343 -8.120376 -4.296751 3.046464 -2.456493 -0.150203 17.337516 -23.845182 -22.351152 164.658791 -52.048042 -143.299815 20.539839 -14.513378 -46.061689 -6.129767 -3.036049 -2.430432 4.393835 -16.501304 -1.669961 -165.534942 -54.556531 152.978733 -7.709182 -17.470459 24.542200 7.824074 -42.704724 -5.168342 -12.965129 67.576314 -14.561304 9.174772 23.370984 8.667880 -0.253873 -16.479184 1.501316 -11.290755 -40.161902 0.533475 31.048052 62.607079 31.296502 -14.886886 6.820705 -7.500310 0.055194 0.052472 0.031097
-106.031866 57.664067 96.732490 177.607817 -32.756817 -1.404539 2.423467 21.597971 3.649598 0.242630 2.966056 0.443037 0.419517 4.809087 0.718088 1.943589 18.336505 3.041833 0.161576 14.879725 -2.258041 1.157450 -8.138733 -4.301556 3.029244 -2.442086 -0.133476 17.327785 -23.844170 -22.345182 164.641808 -52.031094 -143.284055 20.542338 -14.508878 -46.073786 -6.153131 -3.017964 -2.413826 4.396243 -16.497316 -1.668147 -165.536456 -54.551839 152.985287 -7.701174 -17.469000 24.535128 7.838877 -42.704451 -5.165710 -12.962456 67.579129 -14.558902 9.150270 23.383114 8.671658 -0.246983 -16.486417 1.505673 -11.300418 -40.160373 0.546160 31.044851 62.610988 31.283001 -14.881499 6.823144 -7.496743 0.061386 0.053201 0.032240
-106.030558 57.661010 96.735858 177.611796 -32.763156 -1.414347 2.444466 21.584018 3.649293 0.234981 2.974437 0.451596 0.418892 4.807678 0.717412 1.949290 18.333958 3.042309 0.156259 14.887382 -2.246566 1.172378 -8.166971 -4.316121 3.034708 -2.462761 -0.142941 17.305310 -23.824501 -22.319340 164.619314 -52.016972 -143.265938 20.545559 -14.506980 -46.089042 -6.160690 -3.022490 -2.411899 4.410724 -16.491666 -1.675015 -165.517344 -54.538101 152.976854 -7.708854 -17.470741 24.554162 7.857867 -42.703820 -5.163973 -12.992793 67.582399 -14.577027 9.149326 23.390980 8.670883 -0.241266 -16.493218 1.511622 -11.289019 -40.156117 0.557107 31.020464 62.616061 31.262787 -14.892513 6.826300 -7.493964 0.056147 0.051509 0.033656
